<svg xmlns="http://www.w3.org/2000/svg" version="1.1" xmlns:xlink="http://www.w3.org/1999/xlink" xmlns:svgjs="http://svgjs.dev/svgjs" width="1500" height="1500" viewBox="0 0 1500 1500"><rect width="1500" height="1500" fill="#321755"></rect><g transform="matrix(0.6666666666666666,0,0,0.6666666666666666,249.39436519522388,607.2498014130832)"><svg viewBox="0 0 396 113" data-background-color="#321755" preserveAspectRatio="xMidYMid meet" height="428" width="1500" xmlns="http://www.w3.org/2000/svg" xmlns:xlink="http://www.w3.org/1999/xlink"><g id="tight-bounds" transform="matrix(1,0,0,1,0.24008861730862918,0.03308098243550717)"><svg viewBox="0 0 395.52 112.93378160055671" height="112.93378160055671" width="395.52"><g><svg viewBox="0 0 395.52 112.93378160055671" height="112.93378160055671" width="395.52"><g><svg viewBox="0 0 395.52 112.93378160055671" height="112.93378160055671" width="395.52"><g id="textblocktransform"><svg viewBox="0 0 395.52 112.93378160055671" height="112.93378160055671" width="395.52" id="textblock"><g><svg viewBox="0 0 395.52 112.93378160055671" height="112.93378160055671" width="395.52"><path d="M394.594 24.222C392.735 12.5 387.435 9.241 387.435 9.241 371.165-2.833 350.86-0.231 332.619 1.504 300.414 1.574 268.339 4.153 236.208 5.536 168.767 5.747 100.749 2.278 33.643 10.835 27.339 13.461-6.54 11.351 1.121 25.723 3.129 31.701 10.456 38.336 10.232 43.822 11.236 44.783 12.631 42.58 13.226 43.963 15.309 47.691 18.711 45.932 21.501 48.136 17.614 54.021 20.403 58.921 23.062 64.055 18.377 65.392 12.371 64.758 9.675 69.19 9.396 72.402 7.89 71.792 6.235 71.651 5.026 71.558 2.59 71.909 2.999 72.917 4.394 76.364-1.594 78.357 2.162 81.733-0.422 85.39 3.948 88.555 3.353 92.517 3.278 93.314 3.687 93.994 4.338 94.182 7.22 95.19 3.018 97.159 3.464 99.293 33.029 113.876 65.104 103.794 95.394 110.5 103.259 105.811 97.346 112.164 100.489 111.18 102.943 110.031 104.728 114.79 107.499 112.094 107.927 111.32 107.276 109.492 108.8 109.843 109.6 110.031 110.307 109.984 110.418 108.905 110.586 107.288 109.117 108.296 108.726 107.452 112.947 103.185 111.906 113.336 115.866 112.914 115.68 111.672 114.528 109.89 116.889 110.125 119.232 108.343 119.306 106.866 121.389 110.875 121.463 111.742 121.835 112.352 122.43 112.774 128.938 108.413 135.409 114.321 142.233 112.352 146.417 110.195 150.433 113.524 154.672 112.703 156.16 112.047 157.666 110.875 159.098 112.844 176.632 113.266 195.319 111.508 211.943 112.914 256.364 110.289 303.836 113.993 350.674 110.523 361.719 109.187 373.192 107.288 383.958 105.764 383.958 105.764 392.679 101.591 392.679 82.835S394.538 66.423 394.817 51.489C395.096 36.554 396.398 35.945 394.538 24.222Z" opacity="1" fill="#b548ec" data-fill-palette-color="tertiary"></path><g transform="matrix(1,0,0,1,55.76832,26.230666666666668)"><svg width="283.98335999999995" viewBox="2.13 -32.55 155.66 33.15" height="60.47244826722338" data-palette-color="#fbf8ff"><path d="M12.68 0.58L12.68 0.58Q10.38 0.58 8.46 0.2 6.55-0.18 5.05-0.73 3.55-1.28 2.55-1.83L2.55-1.83 2.13-5.95Q4.05-4.8 6.66-3.94 9.28-3.08 12.35-3.08L12.35-3.08Q16.05-3.08 17.82-4.39 19.6-5.7 19.6-8.33L19.6-8.33 19.6-8.72Q19.6-10.45 18.9-11.55 18.2-12.65 16.54-13.4 14.88-14.15 12.03-14.8L12.03-14.8Q8.43-15.65 6.26-16.81 4.1-17.98 3.14-19.73 2.18-21.48 2.18-24.08L2.18-24.08 2.18-24.3Q2.18-28.23 4.75-30.36 7.33-32.5 12.55-32.5L12.55-32.5Q15.98-32.5 18.39-31.8 20.8-31.1 22.33-30.25L22.33-30.25 22.7-26.45Q20.93-27.5 18.56-28.24 16.2-28.98 13.15-28.98L13.15-28.98Q10.73-28.98 9.22-28.4 7.73-27.83 7.05-26.75 6.38-25.68 6.38-24.15L6.38-24.15 6.38-24.05Q6.38-22.5 7.04-21.4 7.7-20.3 9.36-19.5 11.03-18.7 14.1-17.95L14.1-17.95Q17.63-17.13 19.75-16.05 21.88-14.98 22.84-13.25 23.8-11.53 23.8-8.75L23.8-8.75 23.8-8.22Q23.8-3.9 21.01-1.66 18.23 0.58 12.68 0.58ZM33.92 0L29.82 0 29.82-31.95 33.92-31.95 33.92 0ZM49.75 0L31.05 0 31.05-3.48 49.75-3.48 49.75 0ZM49.22-14.58L32.17-14.58 32.17-18.03 49.22-18.03 49.22-14.58ZM49.6-28.48L31.02-28.48 31.02-31.95 49.6-31.95 49.6-28.48ZM60.12-31.95L60.12 0 55.97 0 55.97-31.95 60.12-31.95ZM58.2 0L58.2-3.53 75.05-3.53 75.05 0 58.2 0ZM84.47-31.95L84.47 0 80.32 0 80.32-31.95 84.47-31.95ZM82.54 0L82.54-3.53 99.39-3.53 99.39 0 82.54 0ZM115.84 0.6L115.84 0.6Q109.79 0.6 106.64-2.74 103.49-6.08 103.49-12.3L103.49-12.3 103.49-19.68Q103.49-25.88 106.64-29.21 109.79-32.55 115.84-32.55L115.84-32.55Q121.89-32.55 125.04-29.21 128.19-25.88 128.19-19.68L128.19-19.68 128.19-12.3Q128.19-6.08 125.04-2.74 121.89 0.6 115.84 0.6ZM115.84-2.88L115.84-2.88Q119.89-2.88 121.94-5.29 123.99-7.7 123.99-12.13L123.99-12.13 123.99-19.85Q123.99-24.28 121.94-26.68 119.89-29.08 115.84-29.08L115.84-29.08Q111.82-29.08 109.77-26.68 107.72-24.28 107.72-19.85L107.72-19.85 107.72-12.13Q107.72-7.7 109.77-5.29 111.82-2.88 115.84-2.88ZM136.74 0L132.14 0 142.01-17.03 142.01-16.07 132.36-31.95 136.89-31.95 144.84-18.68 145.14-18.68 153.06-31.95 157.59-31.95 147.96-16.07 147.96-17.03 157.79 0 153.21 0 145.14-14.15 144.81-14.15 136.74 0Z" opacity="1" transform="matrix(1,0,0,1,0,0)" fill="#fbf8ff" class="wordmark-text-0" data-fill-palette-color="quaternary" id="text-0"></path></svg></g></svg></g></svg></g></svg></g><g></g></svg></g><defs></defs></svg><rect width="395.52" height="112.93378160055671" fill="none" stroke="none" visibility="hidden"></rect></g></svg></g></svg>